<mxfile host="Electron" modified="2024-07-01T08:11:06.228Z" agent="Mozilla/5.0 (Windows NT 10.0; Win64; x64) AppleWebKit/537.36 (KHTML, like Gecko) draw.io/22.0.3 Chrome/114.0.5735.289 Electron/25.8.4 Safari/537.36" etag="-lrMv_VXg10xNYH7xOV4" version="22.0.3" type="device">
  <diagram name="Page-1" id="CFDEm0nTrIY9g4RONSaI">
    <mxGraphModel dx="1420" dy="942" grid="1" gridSize="10" guides="1" tooltips="1" connect="1" arrows="1" fold="1" page="1" pageScale="1" pageWidth="1654" pageHeight="1169" math="0" shadow="0">
      <root>
        <mxCell id="0" />
        <mxCell id="1" parent="0" />
        <mxCell id="DADRpLbTm06VgSmmD6s6-1" value="" style="whiteSpace=wrap;html=1;aspect=fixed;" vertex="1" parent="1">
          <mxGeometry x="500" y="200" width="50" height="50" as="geometry" />
        </mxCell>
        <mxCell id="DADRpLbTm06VgSmmD6s6-2" value="" style="whiteSpace=wrap;html=1;aspect=fixed;" vertex="1" parent="1">
          <mxGeometry x="550" y="200" width="50" height="50" as="geometry" />
        </mxCell>
        <mxCell id="DADRpLbTm06VgSmmD6s6-3" value="1" style="whiteSpace=wrap;html=1;aspect=fixed;strokeWidth=2;" vertex="1" parent="1">
          <mxGeometry x="600" y="200" width="50" height="50" as="geometry" />
        </mxCell>
        <mxCell id="DADRpLbTm06VgSmmD6s6-4" value="0" style="whiteSpace=wrap;html=1;aspect=fixed;" vertex="1" parent="1">
          <mxGeometry x="650" y="200" width="50" height="50" as="geometry" />
        </mxCell>
        <mxCell id="DADRpLbTm06VgSmmD6s6-5" value="1" style="whiteSpace=wrap;html=1;aspect=fixed;" vertex="1" parent="1">
          <mxGeometry x="700" y="200" width="50" height="50" as="geometry" />
        </mxCell>
        <mxCell id="DADRpLbTm06VgSmmD6s6-6" value="" style="whiteSpace=wrap;html=1;aspect=fixed;" vertex="1" parent="1">
          <mxGeometry x="750" y="200" width="50" height="50" as="geometry" />
        </mxCell>
        <mxCell id="DADRpLbTm06VgSmmD6s6-7" value="" style="whiteSpace=wrap;html=1;aspect=fixed;" vertex="1" parent="1">
          <mxGeometry x="800" y="200" width="50" height="50" as="geometry" />
        </mxCell>
        <mxCell id="DADRpLbTm06VgSmmD6s6-8" value="" style="shape=document;whiteSpace=wrap;html=1;boundedLbl=1;rotation=90;" vertex="1" parent="1">
          <mxGeometry x="460" y="210" width="50" height="30" as="geometry" />
        </mxCell>
        <mxCell id="DADRpLbTm06VgSmmD6s6-9" value="" style="shape=document;whiteSpace=wrap;html=1;boundedLbl=1;rotation=-90;" vertex="1" parent="1">
          <mxGeometry x="840" y="210" width="50" height="30" as="geometry" />
        </mxCell>
        <mxCell id="DADRpLbTm06VgSmmD6s6-10" value="" style="whiteSpace=wrap;html=1;aspect=fixed;" vertex="1" parent="1">
          <mxGeometry x="450" y="270" width="50" height="50" as="geometry" />
        </mxCell>
        <mxCell id="DADRpLbTm06VgSmmD6s6-11" value="" style="whiteSpace=wrap;html=1;aspect=fixed;" vertex="1" parent="1">
          <mxGeometry x="500" y="270" width="50" height="50" as="geometry" />
        </mxCell>
        <mxCell id="DADRpLbTm06VgSmmD6s6-12" value="1" style="whiteSpace=wrap;html=1;aspect=fixed;strokeWidth=1;" vertex="1" parent="1">
          <mxGeometry x="550" y="270" width="50" height="50" as="geometry" />
        </mxCell>
        <mxCell id="DADRpLbTm06VgSmmD6s6-13" value="0" style="whiteSpace=wrap;html=1;aspect=fixed;strokeWidth=2;" vertex="1" parent="1">
          <mxGeometry x="600" y="270" width="50" height="50" as="geometry" />
        </mxCell>
        <mxCell id="DADRpLbTm06VgSmmD6s6-14" value="1" style="whiteSpace=wrap;html=1;aspect=fixed;" vertex="1" parent="1">
          <mxGeometry x="650" y="270" width="50" height="50" as="geometry" />
        </mxCell>
        <mxCell id="DADRpLbTm06VgSmmD6s6-15" value="" style="whiteSpace=wrap;html=1;aspect=fixed;" vertex="1" parent="1">
          <mxGeometry x="700" y="270" width="50" height="50" as="geometry" />
        </mxCell>
        <mxCell id="DADRpLbTm06VgSmmD6s6-16" value="" style="whiteSpace=wrap;html=1;aspect=fixed;" vertex="1" parent="1">
          <mxGeometry x="750" y="270" width="50" height="50" as="geometry" />
        </mxCell>
        <mxCell id="DADRpLbTm06VgSmmD6s6-17" value="" style="shape=document;whiteSpace=wrap;html=1;boundedLbl=1;rotation=90;" vertex="1" parent="1">
          <mxGeometry x="410" y="280" width="50" height="30" as="geometry" />
        </mxCell>
        <mxCell id="DADRpLbTm06VgSmmD6s6-18" value="" style="shape=document;whiteSpace=wrap;html=1;boundedLbl=1;rotation=-90;" vertex="1" parent="1">
          <mxGeometry x="790" y="280" width="50" height="30" as="geometry" />
        </mxCell>
        <mxCell id="DADRpLbTm06VgSmmD6s6-19" value="" style="whiteSpace=wrap;html=1;aspect=fixed;" vertex="1" parent="1">
          <mxGeometry x="400" y="340" width="50" height="50" as="geometry" />
        </mxCell>
        <mxCell id="DADRpLbTm06VgSmmD6s6-20" value="" style="whiteSpace=wrap;html=1;aspect=fixed;" vertex="1" parent="1">
          <mxGeometry x="450" y="340" width="50" height="50" as="geometry" />
        </mxCell>
        <mxCell id="DADRpLbTm06VgSmmD6s6-21" value="1" style="whiteSpace=wrap;html=1;aspect=fixed;strokeWidth=1;" vertex="1" parent="1">
          <mxGeometry x="500" y="340" width="50" height="50" as="geometry" />
        </mxCell>
        <mxCell id="DADRpLbTm06VgSmmD6s6-22" value="0" style="whiteSpace=wrap;html=1;aspect=fixed;strokeWidth=1;" vertex="1" parent="1">
          <mxGeometry x="550" y="340" width="50" height="50" as="geometry" />
        </mxCell>
        <mxCell id="DADRpLbTm06VgSmmD6s6-23" value="1" style="whiteSpace=wrap;html=1;aspect=fixed;strokeWidth=2;" vertex="1" parent="1">
          <mxGeometry x="600" y="340" width="50" height="50" as="geometry" />
        </mxCell>
        <mxCell id="DADRpLbTm06VgSmmD6s6-24" value="" style="whiteSpace=wrap;html=1;aspect=fixed;" vertex="1" parent="1">
          <mxGeometry x="650" y="340" width="50" height="50" as="geometry" />
        </mxCell>
        <mxCell id="DADRpLbTm06VgSmmD6s6-25" value="" style="whiteSpace=wrap;html=1;aspect=fixed;" vertex="1" parent="1">
          <mxGeometry x="700" y="340" width="50" height="50" as="geometry" />
        </mxCell>
        <mxCell id="DADRpLbTm06VgSmmD6s6-26" value="" style="shape=document;whiteSpace=wrap;html=1;boundedLbl=1;rotation=90;" vertex="1" parent="1">
          <mxGeometry x="360" y="350" width="50" height="30" as="geometry" />
        </mxCell>
        <mxCell id="DADRpLbTm06VgSmmD6s6-27" value="" style="shape=document;whiteSpace=wrap;html=1;boundedLbl=1;rotation=-90;" vertex="1" parent="1">
          <mxGeometry x="740" y="350" width="50" height="30" as="geometry" />
        </mxCell>
        <mxCell id="DADRpLbTm06VgSmmD6s6-28" value="" style="whiteSpace=wrap;html=1;aspect=fixed;" vertex="1" parent="1">
          <mxGeometry x="350" y="410" width="50" height="50" as="geometry" />
        </mxCell>
        <mxCell id="DADRpLbTm06VgSmmD6s6-29" value="" style="whiteSpace=wrap;html=1;aspect=fixed;" vertex="1" parent="1">
          <mxGeometry x="400" y="410" width="50" height="50" as="geometry" />
        </mxCell>
        <mxCell id="DADRpLbTm06VgSmmD6s6-30" value="1" style="whiteSpace=wrap;html=1;aspect=fixed;strokeWidth=1;" vertex="1" parent="1">
          <mxGeometry x="450" y="410" width="50" height="50" as="geometry" />
        </mxCell>
        <mxCell id="DADRpLbTm06VgSmmD6s6-31" value="0" style="whiteSpace=wrap;html=1;aspect=fixed;strokeWidth=1;" vertex="1" parent="1">
          <mxGeometry x="500" y="410" width="50" height="50" as="geometry" />
        </mxCell>
        <mxCell id="DADRpLbTm06VgSmmD6s6-32" value="1" style="whiteSpace=wrap;html=1;aspect=fixed;" vertex="1" parent="1">
          <mxGeometry x="550" y="410" width="50" height="50" as="geometry" />
        </mxCell>
        <mxCell id="DADRpLbTm06VgSmmD6s6-33" value="" style="whiteSpace=wrap;html=1;aspect=fixed;strokeWidth=2;" vertex="1" parent="1">
          <mxGeometry x="600" y="410" width="50" height="50" as="geometry" />
        </mxCell>
        <mxCell id="DADRpLbTm06VgSmmD6s6-34" value="" style="whiteSpace=wrap;html=1;aspect=fixed;" vertex="1" parent="1">
          <mxGeometry x="650" y="410" width="50" height="50" as="geometry" />
        </mxCell>
        <mxCell id="DADRpLbTm06VgSmmD6s6-35" value="" style="shape=document;whiteSpace=wrap;html=1;boundedLbl=1;rotation=90;" vertex="1" parent="1">
          <mxGeometry x="310" y="420" width="50" height="30" as="geometry" />
        </mxCell>
        <mxCell id="DADRpLbTm06VgSmmD6s6-36" value="" style="shape=document;whiteSpace=wrap;html=1;boundedLbl=1;rotation=-90;" vertex="1" parent="1">
          <mxGeometry x="690" y="420" width="50" height="30" as="geometry" />
        </mxCell>
        <mxCell id="DADRpLbTm06VgSmmD6s6-37" value="" style="whiteSpace=wrap;html=1;aspect=fixed;" vertex="1" parent="1">
          <mxGeometry x="400" y="480" width="50" height="50" as="geometry" />
        </mxCell>
        <mxCell id="DADRpLbTm06VgSmmD6s6-38" value="" style="whiteSpace=wrap;html=1;aspect=fixed;" vertex="1" parent="1">
          <mxGeometry x="450" y="480" width="50" height="50" as="geometry" />
        </mxCell>
        <mxCell id="DADRpLbTm06VgSmmD6s6-39" value="1" style="whiteSpace=wrap;html=1;aspect=fixed;strokeWidth=1;" vertex="1" parent="1">
          <mxGeometry x="500" y="480" width="50" height="50" as="geometry" />
        </mxCell>
        <mxCell id="DADRpLbTm06VgSmmD6s6-40" value="0" style="whiteSpace=wrap;html=1;aspect=fixed;strokeWidth=1;" vertex="1" parent="1">
          <mxGeometry x="550" y="480" width="50" height="50" as="geometry" />
        </mxCell>
        <mxCell id="DADRpLbTm06VgSmmD6s6-41" value="0" style="whiteSpace=wrap;html=1;aspect=fixed;strokeWidth=2;" vertex="1" parent="1">
          <mxGeometry x="600" y="480" width="50" height="50" as="geometry" />
        </mxCell>
        <mxCell id="DADRpLbTm06VgSmmD6s6-42" value="" style="whiteSpace=wrap;html=1;aspect=fixed;" vertex="1" parent="1">
          <mxGeometry x="650" y="480" width="50" height="50" as="geometry" />
        </mxCell>
        <mxCell id="DADRpLbTm06VgSmmD6s6-43" value="" style="whiteSpace=wrap;html=1;aspect=fixed;" vertex="1" parent="1">
          <mxGeometry x="700" y="480" width="50" height="50" as="geometry" />
        </mxCell>
        <mxCell id="DADRpLbTm06VgSmmD6s6-44" value="" style="shape=document;whiteSpace=wrap;html=1;boundedLbl=1;rotation=90;" vertex="1" parent="1">
          <mxGeometry x="360" y="490" width="50" height="30" as="geometry" />
        </mxCell>
        <mxCell id="DADRpLbTm06VgSmmD6s6-45" value="" style="shape=document;whiteSpace=wrap;html=1;boundedLbl=1;rotation=-90;" vertex="1" parent="1">
          <mxGeometry x="740" y="490" width="50" height="30" as="geometry" />
        </mxCell>
        <mxCell id="DADRpLbTm06VgSmmD6s6-46" value="" style="whiteSpace=wrap;html=1;aspect=fixed;" vertex="1" parent="1">
          <mxGeometry x="450" y="550" width="50" height="50" as="geometry" />
        </mxCell>
        <mxCell id="DADRpLbTm06VgSmmD6s6-47" value="" style="whiteSpace=wrap;html=1;aspect=fixed;" vertex="1" parent="1">
          <mxGeometry x="500" y="550" width="50" height="50" as="geometry" />
        </mxCell>
        <mxCell id="DADRpLbTm06VgSmmD6s6-48" value="1" style="whiteSpace=wrap;html=1;aspect=fixed;strokeWidth=1;" vertex="1" parent="1">
          <mxGeometry x="550" y="550" width="50" height="50" as="geometry" />
        </mxCell>
        <mxCell id="DADRpLbTm06VgSmmD6s6-49" value="1" style="whiteSpace=wrap;html=1;aspect=fixed;strokeWidth=2;" vertex="1" parent="1">
          <mxGeometry x="600" y="550" width="50" height="50" as="geometry" />
        </mxCell>
        <mxCell id="DADRpLbTm06VgSmmD6s6-50" value="0" style="whiteSpace=wrap;html=1;aspect=fixed;strokeWidth=1;" vertex="1" parent="1">
          <mxGeometry x="650" y="550" width="50" height="50" as="geometry" />
        </mxCell>
        <mxCell id="DADRpLbTm06VgSmmD6s6-51" value="" style="whiteSpace=wrap;html=1;aspect=fixed;" vertex="1" parent="1">
          <mxGeometry x="700" y="550" width="50" height="50" as="geometry" />
        </mxCell>
        <mxCell id="DADRpLbTm06VgSmmD6s6-52" value="" style="whiteSpace=wrap;html=1;aspect=fixed;" vertex="1" parent="1">
          <mxGeometry x="750" y="550" width="50" height="50" as="geometry" />
        </mxCell>
        <mxCell id="DADRpLbTm06VgSmmD6s6-53" value="" style="shape=document;whiteSpace=wrap;html=1;boundedLbl=1;rotation=90;" vertex="1" parent="1">
          <mxGeometry x="410" y="560" width="50" height="30" as="geometry" />
        </mxCell>
        <mxCell id="DADRpLbTm06VgSmmD6s6-54" value="" style="shape=document;whiteSpace=wrap;html=1;boundedLbl=1;rotation=-90;" vertex="1" parent="1">
          <mxGeometry x="790" y="560" width="50" height="30" as="geometry" />
        </mxCell>
        <mxCell id="DADRpLbTm06VgSmmD6s6-55" value="" style="shape=flexArrow;endArrow=classic;html=1;rounded=0;" edge="1" parent="1">
          <mxGeometry width="50" height="50" relative="1" as="geometry">
            <mxPoint x="400" y="294.5" as="sourcePoint" />
            <mxPoint x="340" y="294.5" as="targetPoint" />
          </mxGeometry>
        </mxCell>
        <mxCell id="DADRpLbTm06VgSmmD6s6-56" value="" style="shape=flexArrow;endArrow=classic;html=1;rounded=0;" edge="1" parent="1">
          <mxGeometry width="50" height="50" relative="1" as="geometry">
            <mxPoint x="350" y="364.5" as="sourcePoint" />
            <mxPoint x="290" y="364.5" as="targetPoint" />
          </mxGeometry>
        </mxCell>
        <mxCell id="DADRpLbTm06VgSmmD6s6-57" value="" style="shape=flexArrow;endArrow=classic;html=1;rounded=0;" edge="1" parent="1">
          <mxGeometry width="50" height="50" relative="1" as="geometry">
            <mxPoint x="300" y="434.5" as="sourcePoint" />
            <mxPoint x="240" y="434.5" as="targetPoint" />
          </mxGeometry>
        </mxCell>
        <mxCell id="DADRpLbTm06VgSmmD6s6-58" value="" style="shape=flexArrow;endArrow=classic;html=1;rounded=0;" edge="1" parent="1">
          <mxGeometry width="50" height="50" relative="1" as="geometry">
            <mxPoint x="810" y="504.5" as="sourcePoint" />
            <mxPoint x="870" y="504.5" as="targetPoint" />
          </mxGeometry>
        </mxCell>
        <mxCell id="DADRpLbTm06VgSmmD6s6-60" value="" style="shape=flexArrow;endArrow=classic;html=1;rounded=0;" edge="1" parent="1">
          <mxGeometry width="50" height="50" relative="1" as="geometry">
            <mxPoint x="860" y="574.5" as="sourcePoint" />
            <mxPoint x="920" y="574.5" as="targetPoint" />
          </mxGeometry>
        </mxCell>
      </root>
    </mxGraphModel>
  </diagram>
</mxfile>
